<svg xmlns="http://www.w3.org/2000/svg"  viewBox="0 0 100 100" width="500px" height="500px"><path fill="#fff" d="M12.5,53h-1c-0.276,0-0.5-0.224-0.5-0.5s0.224-0.5,0.5-0.5h1c0.276,0,0.5,0.224,0.5,0.5 S12.777,53,12.5,53z"/><path fill="#fff" d="M9.5,53h-2C7.224,53,7,52.776,7,52.5S7.224,52,7.5,52h2c0.276,0,0.5,0.224,0.5,0.5S9.777,53,9.5,53z"/><path fill="#c7ede6" d="M87.215,56.71C88.35,54.555,89,52.105,89,49.5c0-6.621-4.159-12.257-10.001-14.478 C78.999,35.015,79,35.008,79,35c0-11.598-9.402-21-21-21c-9.784,0-17.981,6.701-20.313,15.757C36.211,29.272,34.638,29,33,29 c-7.692,0-14.023,5.793-14.89,13.252C12.906,43.353,9,47.969,9,53.5C9,59.851,14.149,65,20.5,65c0.177,0,0.352-0.012,0.526-0.022 C21.022,65.153,21,65.324,21,65.5C21,76.822,30.178,86,41.5,86c6.437,0,12.175-2.972,15.934-7.614C59.612,80.611,62.64,82,66,82 c4.65,0,8.674-2.65,10.666-6.518C77.718,75.817,78.837,76,80,76c6.075,0,11-4.925,11-11C91,61.689,89.53,58.727,87.215,56.71z"/><path fill="#472b29" d="M35.25,71C35.112,71,35,70.888,35,70.75c0-1.223,0.995-2.218,2.218-2.218 c0.034,0.009,0.737-0.001,1.244,0.136c0.133,0.036,0.212,0.173,0.176,0.306c-0.036,0.134-0.173,0.213-0.306,0.176 c-0.444-0.12-1.1-0.12-1.113-0.118c-0.948,0-1.719,0.771-1.719,1.718C35.5,70.888,35.388,71,35.25,71z"/><path fill="#fdfcef" d="M33.5,75.5c0,0,1.567,0,3.5,0s3.5-1.567,3.5-3.5c0-1.781-1.335-3.234-3.055-3.455 C37.473,68.366,37.5,68.187,37.5,68c0-1.933-1.567-3.5-3.5-3.5c-1.032,0-1.95,0.455-2.59,1.165 c-0.384-1.808-1.987-3.165-3.91-3.165c-2.209,0-4,1.791-4,4c0,0.191,0.03,0.374,0.056,0.558C23.128,66.714,22.592,66.5,22,66.5 c-1.228,0-2.245,0.887-2.455,2.055C19.366,68.527,19.187,68.5,19,68.5c-1.933,0-3.5,1.567-3.5,3.5s1.567,3.5,3.5,3.5s7.5,0,7.5,0 V76h7V75.5z"/><circle cx="28.5" cy="75.5" r=".5" fill="#472b29"/><path fill="#472b29" d="M37,76h-3.5c-0.276,0-0.5-0.224-0.5-0.5s0.224-0.5,0.5-0.5H37c1.654,0,3-1.346,3-3 c0-1.496-1.125-2.768-2.618-2.959c-0.134-0.018-0.255-0.088-0.336-0.196s-0.115-0.244-0.094-0.377C36.975,68.314,37,68.16,37,68 c0-1.654-1.346-3-3-3c-0.85,0-1.638,0.355-2.219,1c-0.125,0.139-0.321,0.198-0.5,0.148c-0.182-0.049-0.321-0.195-0.36-0.379 C30.58,64.165,29.141,63,27.5,63c-1.93,0-3.5,1.57-3.5,3.5c0,0.143,0.021,0.28,0.041,0.418c0.029,0.203-0.063,0.438-0.242,0.54 s-0.396,0.118-0.556-0.01C22.878,67.155,22.449,67,22,67c-0.966,0-1.792,0.691-1.963,1.644c-0.048,0.267-0.296,0.446-0.569,0.405 C19.314,69.025,19.16,69,19,69c-1.654,0-3,1.346-3,3s1.346,3,3,3h7.5c0.276,0,0.5,0.224,0.5,0.5S26.776,76,26.5,76H19 c-2.206,0-4-1.794-4-4s1.794-4,4-4c0.059,0,0.116,0.002,0.174,0.006C19.588,66.82,20.711,66,22,66c0.349,0,0.689,0.061,1.011,0.18 C23.176,63.847,25.126,62,27.5,62c1.831,0,3.466,1.127,4.153,2.774C32.333,64.276,33.155,64,34,64c2.206,0,4,1.794,4,4 c0,0.048-0.001,0.095-0.004,0.142C39.739,68.59,41,70.169,41,72C41,74.206,39.206,76,37,76z"/><path fill="#472b29" d="M31.5,75c-0.159,0-0.841,0-1,0c-0.276,0-0.5,0.224-0.5,0.5s0.224,0.5,0.5,0.5c0.159,0,0.841,0,1,0 c0.276,0,0.5-0.224,0.5-0.5S31.776,75,31.5,75z"/><path fill="#9898ad" d="M29.989,64.011V35.989c0-3.866,3.134-7,7-7h28.023c3.866,0,7,3.134,7,7v28.023c0,3.866-3.134,7-7,7 H36.989C33.123,71.011,29.989,67.877,29.989,64.011z"/><path fill="#fff" d="M38.694,40.394c-0.561,0.185-0.561,0.977,0,1.162c1.291,0.424,2.303,1.437,2.728,2.728 c0.185,0.561,0.977,0.561,1.162,0c0.424-1.291,1.437-2.303,2.728-2.728c0.561-0.185,0.561-0.977,0-1.162 c-1.291-0.424-2.303-1.437-2.728-2.728c-0.185-0.561-0.977-0.561-1.162,0C40.998,38.957,39.985,39.97,38.694,40.394z"/><path fill="#472b29" d="M42.003,45.204c-0.488,0-0.903-0.3-1.056-0.764c-0.373-1.135-1.273-2.036-2.409-2.409 c-0.464-0.153-0.764-0.567-0.764-1.056c0-0.488,0.3-0.903,0.764-1.056l0,0c1.136-0.374,2.036-1.274,2.409-2.409 c0.152-0.464,0.567-0.764,1.056-0.764s0.903,0.3,1.056,0.764c0.373,1.136,1.273,2.036,2.409,2.409 c0.464,0.153,0.764,0.567,0.764,1.056c0,0.489-0.3,0.903-0.764,1.056c-1.136,0.373-2.036,1.273-2.409,2.408 C42.906,44.904,42.491,45.204,42.003,45.204z M38.851,40.869c-0.02,0.006-0.076,0.025-0.076,0.105c0,0.081,0.058,0.1,0.076,0.106 c1.436,0.472,2.574,1.611,3.046,3.046c0.007,0.019,0.025,0.077,0.106,0.077s0.1-0.058,0.106-0.077 c0.471-1.436,1.609-2.574,3.046-3.046c0.019-0.006,0.076-0.025,0.076-0.106c0-0.081-0.058-0.1-0.076-0.105 c-1.436-0.472-2.574-1.61-3.046-3.046c-0.007-0.019-0.025-0.077-0.106-0.077s-0.1,0.058-0.106,0.077 C41.426,39.258,40.286,40.396,38.851,40.869L38.851,40.869z"/><path fill="#fff" d="M58.13,39.694c-0.226-0.687-1.199-0.687-1.425,0l-1.058,3.216c-0.521,1.584-1.763,2.826-3.347,3.347 l-3.216,1.058c-0.688,0.226-0.688,1.199,0,1.425l3.216,1.058c1.584,0.521,2.826,1.763,3.347,3.347l1.058,3.216 c0.226,0.688,1.199,0.688,1.425,0l1.058-3.216c0.521-1.584,1.763-2.826,3.347-3.347l3.216-1.058c0.688-0.226,0.688-1.199,0-1.425 l-3.216-1.058c-1.584-0.521-2.826-1.763-3.347-3.347L58.13,39.694z"/><path fill="#472b29" d="M57.417,57.377c-0.55,0-1.016-0.338-1.188-0.86l-1.057-3.216c-0.47-1.427-1.603-2.559-3.029-3.028 l-3.216-1.058c-0.522-0.172-0.859-0.638-0.859-1.188c0-0.55,0.337-1.016,0.859-1.188l3.216-1.058 c1.427-0.469,2.56-1.602,3.029-3.028l1.058-3.216c0.171-0.521,0.637-0.859,1.187-0.859c0.551,0,1.017,0.337,1.188,0.859 l1.059,3.215c0.47,1.427,1.602,2.559,3.028,3.028l3.216,1.058c0.522,0.172,0.86,0.638,0.86,1.188c0,0.55-0.338,1.016-0.86,1.188 l-3.216,1.058c-1.428,0.469-2.56,1.601-3.028,3.028l-1.059,3.216C58.434,57.04,57.968,57.377,57.417,57.377z M57.417,39.679 c-0.054,0-0.187,0.017-0.237,0.171l-1.058,3.216c-0.568,1.728-1.938,3.098-3.666,3.666L49.24,47.79 c-0.155,0.051-0.172,0.183-0.172,0.238c0,0.054,0.017,0.187,0.172,0.237l3.216,1.058c1.728,0.568,3.098,1.938,3.666,3.666 l1.058,3.216c0.052,0.155,0.184,0.172,0.237,0.172c0.055,0,0.187-0.017,0.237-0.172l1.06-3.217 c0.567-1.727,1.938-3.097,3.665-3.666l3.216-1.058c0.156-0.051,0.173-0.183,0.173-0.237c0-0.055-0.017-0.187-0.173-0.238 l-3.216-1.058c-1.728-0.568-3.098-1.939-3.665-3.666l-1.059-3.216C57.604,39.696,57.472,39.679,57.417,39.679z"/><path fill="#fff" d="M45.192,54.405c-0.226-0.687-1.199-0.687-1.425,0l-0.13,0.394c-0.521,1.584-1.763,2.826-3.347,3.347 l-0.394,0.13c-0.688,0.226-0.688,1.199,0,1.425l0.394,0.13c1.584,0.521,2.826,1.763,3.347,3.347l0.13,0.395 c0.226,0.688,1.199,0.688,1.425,0l0.13-0.395c0.521-1.584,1.763-2.826,3.347-3.347l0.394-0.13c0.688-0.226,0.688-1.199,0-1.425 l-0.394-0.13c-1.584-0.521-2.826-1.763-3.347-3.347L45.192,54.405z"/><path fill="#472b29" d="M44.48,64.589c-0.551,0-1.017-0.338-1.188-0.86l-0.129-0.395c-0.47-1.427-1.603-2.559-3.029-3.028 l-0.394-0.13c-0.522-0.171-0.86-0.637-0.86-1.187c0-0.55,0.338-1.016,0.86-1.188l0.394-0.129c1.427-0.47,2.56-1.602,3.029-3.029 l0.13-0.395c0.171-0.521,0.637-0.858,1.188-0.858c0.549,0,1.016,0.337,1.187,0.858l0.13,0.394c0.47,1.427,1.603,2.56,3.029,3.029 l0.394,0.13c0.522,0.171,0.859,0.638,0.859,1.188c0,0.549-0.337,1.016-0.859,1.188l-0.394,0.129 c-1.427,0.47-2.56,1.602-3.029,3.029l-0.13,0.395C45.496,64.251,45.03,64.589,44.48,64.589z M44.48,54.39 c-0.055,0-0.188,0.017-0.238,0.171l-0.13,0.395c-0.568,1.727-1.938,3.097-3.666,3.666l-0.394,0.129 c-0.156,0.052-0.173,0.184-0.173,0.238c0,0.054,0.017,0.186,0.173,0.237l0.394,0.13c1.728,0.568,3.098,1.938,3.666,3.666 l0.13,0.395c0.052,0.155,0.184,0.172,0.238,0.172c0.054,0,0.186-0.017,0.236-0.172l0.131-0.396 c0.568-1.728,1.939-3.098,3.666-3.666l0.394-0.129c0.155-0.051,0.172-0.184,0.172-0.238c0-0.055-0.017-0.187-0.172-0.238 l-0.394-0.13c-1.727-0.568-3.098-1.938-3.666-3.666l-0.13-0.394C44.667,54.407,44.534,54.39,44.48,54.39z"/><path fill="#472b29" d="M65,29.4c3.639,0,6.6,2.961,6.6,6.6v28c0,3.639-2.961,6.6-6.6,6.6H37c-3.639,0-6.6-2.961-6.6-6.6V36 c0-3.639,2.961-6.6,6.6-6.6H65 M65,28H37c-4.418,0-8,3.582-8,8v28c0,4.418,3.582,8,8,8h28c4.418,0,8-3.582,8-8V36 C73,31.582,69.418,28,65,28L65,28z"/><path fill="#472b29" d="M69.5,41c-0.276,0-0.5-0.224-0.5-0.5v-4c0-2.481-2.019-4.5-4.5-4.5h-11c-0.276,0-0.5-0.224-0.5-0.5 s0.224-0.5,0.5-0.5h11c3.032,0,5.5,2.467,5.5,5.5v4C70,40.776,69.776,41,69.5,41z"/><path fill="#472b29" d="M69.5,57c-0.276,0-0.5-0.224-0.5-0.5v-9.016c0-0.276,0.224-0.5,0.5-0.5s0.5,0.224,0.5,0.5V56.5 C70,56.776,69.776,57,69.5,57z"/><path fill="#472b29" d="M64.5,69h-27c-3.032,0-5.5-2.467-5.5-5.5v-27c0-3.033,2.468-5.5,5.5-5.5h7 c0.276,0,0.5,0.224,0.5,0.5S44.776,32,44.5,32h-7c-2.481,0-4.5,2.019-4.5,4.5v27c0,2.481,2.019,4.5,4.5,4.5h27 c2.481,0,4.5-2.019,4.5-4.5v-4c0-0.276,0.224-0.5,0.5-0.5s0.5,0.224,0.5,0.5v4C70,66.533,67.532,69,64.5,69z"/><path fill="#472b29" d="M50.5,32h-3c-0.276,0-0.5-0.224-0.5-0.5s0.224-0.5,0.5-0.5h3c0.276,0,0.5,0.224,0.5,0.5 S50.776,32,50.5,32z"/><path fill="#fff" d="M18.5,51h-1c-0.276,0-0.5-0.224-0.5-0.5s0.224-0.5,0.5-0.5h1c0.276,0,0.5,0.224,0.5,0.5 S18.777,51,18.5,51z"/><path fill="#fff" d="M23.491,53H14.5c-0.276,0-0.5-0.224-0.5-0.5s0.224-0.5,0.5-0.5h8.991c0.276,0,0.5,0.224,0.5,0.5 S23.767,53,23.491,53z"/><path fill="#fff" d="M18.5,46c-0.177,0-0.823,0-1,0c-0.276,0-0.5,0.224-0.5,0.5s0.224,0.5,0.5,0.5c0.177,0,0.823,0,1,0 c0.276,0,0.5-0.224,0.5-0.5S18.776,46,18.5,46z"/><path fill="#fff" d="M18.5,48c-0.177,0-4.823,0-5,0c-0.276,0-0.5,0.224-0.5,0.5s0.224,0.5,0.5,0.5c0.177,0,4.823,0,5,0 c0.276,0,0.5-0.224,0.5-0.5S18.776,48,18.5,48z"/><path fill="#fff" d="M23.5,50c-0.177,0-2.823,0-3,0c-0.276,0-0.5,0.224-0.5,0.5s0.224,0.5,0.5,0.5c0.177,0,2.823,0,3,0 c0.276,0,0.5-0.224,0.5-0.5S23.776,50,23.5,50z"/><path fill="#fff" d="M87.5,65h-10c-0.276,0-0.5-0.224-0.5-0.5s0.224-0.5,0.5-0.5h10c0.276,0,0.5,0.224,0.5,0.5 S87.776,65,87.5,65z"/><path fill="#fff" d="M91.5,65h-2c-0.276,0-0.5-0.224-0.5-0.5s0.224-0.5,0.5-0.5h2c0.276,0,0.5,0.224,0.5,0.5 S91.776,65,91.5,65z"/><path fill="#fff" d="M96.5,67h-10c-0.276,0-0.5-0.224-0.5-0.5s0.224-0.5,0.5-0.5h10c0.276,0,0.5,0.224,0.5,0.5 S96.777,67,96.5,67z"/><path fill="#fff" d="M84.5,67h-1c-0.276,0-0.5-0.224-0.5-0.5s0.224-0.5,0.5-0.5h1c0.276,0,0.5,0.224,0.5,0.5 S84.776,67,84.5,67z"/><path fill="#fff" d="M81.375,67H79.5c-0.276,0-0.5-0.224-0.5-0.5s0.224-0.5,0.5-0.5h1.875c0.276,0,0.5,0.224,0.5,0.5 S81.651,67,81.375,67z"/><path fill="#fff" d="M90.5,63h-5c-0.276,0-0.5-0.224-0.5-0.5s0.224-0.5,0.5-0.5h5c0.276,0,0.5,0.224,0.5,0.5 S90.777,63,90.5,63z"/><path fill="#fff" d="M87.5,69h-2c-0.276,0-0.5-0.224-0.5-0.5s0.224-0.5,0.5-0.5h2c0.276,0,0.5,0.224,0.5,0.5 S87.776,69,87.5,69z"/><path fill="#fdfcef" d="M80.875,34.5c0,0,3.64,0,6.125,0s4.5-2.015,4.5-4.5c0-2.333-1.782-4.229-4.055-4.455 C87.467,25.364,87.5,25.187,87.5,25c0-2.485-2.015-4.5-4.5-4.5c-1.438,0-2.703,0.686-3.527,1.736 C79.333,19.6,77.171,17.5,74.5,17.5c-2.761,0-5,2.239-5,5c0,0.446,0.077,0.87,0.187,1.282C69.045,23.005,68.086,22.5,67,22.5 c-1.781,0-3.234,1.335-3.455,3.055C63.364,25.533,63.187,25.5,63,25.5c-2.485,0-4.5,2.015-4.5,4.5s2.015,4.5,4.5,4.5s9.5,0,9.5,0 h5.375V35h3V34.5z"/><path fill="#472b29" d="M74.5,17c-3.033,0-5.5,2.467-5.5,5.5c0,0.016,0,0.031,0,0.047C68.398,22.192,67.71,22,67,22 c-1.831,0-3.411,1.261-3.858,3.005C63.095,25.002,63.048,25,63,25c-2.757,0-5,2.243-5,5s2.243,5,5,5h14.875 c0.276,0,0.5-0.224,0.5-0.5s-0.224-0.5-0.5-0.5H63c-2.206,0-4-1.794-4-4s1.794-4,4-4c0.117,0,0.23,0.017,0.343,0.032l0.141,0.019 c0.021,0.003,0.041,0.004,0.062,0.004c0.246,0,0.462-0.185,0.495-0.437C64.232,24.125,65.504,23,67,23 c0.885,0,1.723,0.401,2.301,1.1c0.098,0.118,0.241,0.182,0.386,0.182c0.078,0,0.156-0.018,0.228-0.056 c0.209-0.107,0.314-0.346,0.254-0.573C70.054,23.218,70,22.852,70,22.5c0-2.481,2.019-4.5,4.5-4.5 c2.381,0,4.347,1.872,4.474,4.263c0.011,0.208,0.15,0.387,0.349,0.45c0.05,0.016,0.101,0.024,0.152,0.024 c0.15,0,0.296-0.069,0.392-0.192C80.638,21.563,81.779,21,83,21c2.206,0,4,1.794,4,4c0,0.117-0.017,0.23-0.032,0.343l-0.019,0.141 c-0.016,0.134,0.022,0.268,0.106,0.373s0.207,0.172,0.34,0.185C89.451,26.247,91,27.949,91,30c0,2.206-1.794,4-4,4h-6.125 c-0.276,0-0.5,0.224-0.5,0.5s0.224,0.5,0.5,0.5H87c2.757,0,5-2.243,5-5c0-2.397-1.689-4.413-4.003-4.877 C87.999,25.082,88,25.041,88,25c0-2.757-2.243-5-5-5c-1.176,0-2.293,0.416-3.183,1.164C79.219,18.76,77.055,17,74.5,17L74.5,17z"/><path fill="#472b29" d="M73,24c-1.403,0-2.609,0.999-2.913,2.341C69.72,26.119,69.301,26,68.875,26 c-1.202,0-2.198,0.897-2.353,2.068C66.319,28.022,66.126,28,65.938,28c-1.529,0-2.811,1.2-2.918,2.732 C63.01,30.87,63.114,30.99,63.251,31c0.006,0,0.012,0,0.018,0c0.13,0,0.24-0.101,0.249-0.232c0.089-1.271,1.151-2.268,2.419-2.268 c0.229,0,0.47,0.042,0.738,0.127c0.022,0.007,0.045,0.01,0.067,0.01c0.055,0,0.11-0.02,0.156-0.054 C66.962,28.537,67,28.455,67,28.375c0-1.034,0.841-1.875,1.875-1.875c0.447,0,0.885,0.168,1.231,0.473 c0.047,0.041,0.106,0.063,0.165,0.063c0.032,0,0.063-0.006,0.093-0.019c0.088-0.035,0.148-0.117,0.155-0.212 C70.623,25.512,71.712,24.5,73,24.5c0.208,0,0.425,0.034,0.682,0.107c0.023,0.007,0.047,0.01,0.07,0.01 c0.109,0,0.207-0.073,0.239-0.182c0.038-0.133-0.039-0.271-0.172-0.309C73.517,24.04,73.256,24,73,24L73,24z"/><path fill="#472b29" d="M86.883,25.5c-1.326,0-2.508,0.897-2.874,2.182c-0.038,0.133,0.039,0.271,0.172,0.309 C84.205,27.997,84.228,28,84.25,28c0.109,0,0.209-0.072,0.24-0.182C84.795,26.748,85.779,26,86.883,26 c0.117,0,0.23,0.014,0.342,0.029c0.012,0.002,0.023,0.003,0.035,0.003c0.121,0,0.229-0.092,0.246-0.217 c0.019-0.137-0.077-0.263-0.214-0.281C87.158,25.516,87.022,25.5,86.883,25.5L86.883,25.5z"/></svg>